<?xml version="1.0" standalone="no"?>
<!DOCTYPE svg PUBLIC "-//W3C//DTD SVG 20010904//EN"
 "http://www.w3.org/TR/2001/REC-SVG-20010904/DTD/svg10.dtd">
<svg version="1.0" xmlns="http://www.w3.org/2000/svg"
 width="512.000000pt" height="250.000000pt" viewBox="0 0 512.000000 250.000000"
 preserveAspectRatio="xMidYMid meet">

<g transform="translate(0.000000,250.000000) scale(0.100000,-0.100000)"
fill="#000000" stroke="none">
<path d="M3900 2367 c-117 -33 -220 -144 -220 -237 0 -42 65 -198 96 -231 14
-15 54 -40 87 -55 111 -50 207 -33 207 36 0 37 -15 47 -85 55 -155 19 -240
134 -155 210 65 58 282 -25 337 -129 l17 -31 19 60 c27 87 20 171 -18 227 -56
80 -186 123 -285 95z m-56 -125 c6 -10 -51 -82 -64 -82 -12 0 -24 65 -15 79 7
13 71 15 79 3z"/>
<path d="M3413 2155 c-85 -26 -163 -83 -361 -263 -128 -117 -147 -160 -97
-221 38 -44 122 -72 230 -77 50 -3 120 -6 158 -8 l67 -3 0 35 c0 20 11 55 26
80 21 35 23 46 13 53 -16 9 -85 20 -192 28 -42 3 -78 10 -78 16 0 5 17 14 38
21 42 12 43 11 -43 30 -21 4 -24 8 -15 17 7 7 54 13 121 15 l110 4 -25 32
c-14 18 -25 36 -25 39 0 17 40 4 78 -24 l42 -31 -6 49 -5 48 35 -40 c20 -22
36 -35 36 -30 0 10 -24 107 -36 148 -9 30 20 19 51 -21 17 -20 47 -68 68 -107
l38 -70 -4 52 c-3 37 -13 65 -33 95 -51 74 -50 71 -15 66 38 -6 39 1 4 34 -51
48 -102 58 -180 33z"/>
<path d="M4280 1966 c0 -3 67 -52 148 -111 193 -137 261 -204 97 -95 -86 57
-195 120 -254 145 l-44 19 -21 -26 c-11 -15 -32 -31 -45 -36 -22 -8 -14 -13
75 -47 215 -81 329 -149 426 -255 34 -36 77 -69 117 -89 54 -28 66 -39 83 -78
17 -38 19 -60 15 -112 -3 -40 -2 -58 3 -46 14 33 11 158 -5 211 -17 57 -77
154 -143 232 -55 64 -165 155 -286 234 -69 46 -96 58 -127 58 -21 0 -39 -2
-39 -4z"/>
<path d="M3595 1748 c-2 -7 -5 -24 -7 -38 -3 -22 -9 -26 -48 -30 -25 -3 -44
-8 -42 -12 1 -5 2 -27 2 -49 l0 -42 49 6 c27 3 65 13 85 21 33 14 36 18 36 55
0 23 3 41 8 41 4 0 24 -19 44 -42 l36 -43 129 -6 c70 -4 129 -6 129 -5 7 5
-18 112 -28 123 -22 21 -113 33 -255 33 -98 0 -135 -3 -138 -12z"/>
<path d="M4188 1706 c23 -27 42 -55 42 -62 0 -7 -14 -22 -31 -34 -40 -29 -31
-35 30 -20 76 18 81 31 28 82 -24 24 -60 52 -78 62 l-34 20 43 -48z"/>
<path d="M2854 1588 c-45 -35 -53 -50 -54 -94 0 -51 48 -129 99 -158 32 -19
36 -19 148 -2 68 10 119 14 124 9 15 -15 -47 -98 -114 -156 -34 -29 -106 -86
-160 -126 -53 -41 -95 -76 -93 -79 3 -2 90 38 193 90 332 166 433 235 433 295
0 86 -123 152 -387 208 -65 14 -128 27 -139 30 -13 3 -33 -4 -50 -17z"/>
<path d="M4440 1560 c-28 -28 -22 -33 19 -17 64 24 108 -30 82 -104 -13 -38 0
-37 23 1 40 68 13 127 -61 137 -33 4 -45 1 -63 -17z"/>
<path d="M3585 1544 c-60 -8 -120 -18 -133 -22 -22 -7 -21 -9 22 -39 94 -66
95 -136 5 -224 -27 -26 -81 -67 -119 -91 -105 -65 -98 -67 85 -26 123 28 231
70 301 120 88 62 112 68 296 83 170 14 198 22 198 55 0 31 -94 106 -163 130
-82 30 -327 36 -492 14z"/>
<path d="M4705 1410 c-12 -19 -99 -57 -155 -69 -30 -6 -99 -17 -152 -26 -152
-23 -296 -102 -378 -206 l-35 -43 65 46 c77 54 188 111 250 128 24 6 99 18
166 25 68 8 142 19 164 26 41 12 90 58 90 84 0 7 3 20 6 29 7 18 -11 22 -21 6z"/>
<path d="M2482 1380 c-40 -11 -101 -32 -135 -47 -85 -38 -301 -202 -286 -217
3 -4 34 9 69 29 164 93 294 130 422 122 93 -6 182 -42 200 -81 14 -32 -1 -89
-39 -149 -13 -21 -22 -41 -19 -44 3 -3 50 26 105 66 142 101 168 153 112 222
-55 67 -189 120 -301 118 -30 0 -88 -9 -128 -19z"/>
<path d="M4423 1199 c-35 -5 -75 -15 -90 -21 -25 -10 -20 -12 57 -20 271 -26
381 -105 435 -313 19 -74 19 -122 0 -203 -34 -144 -133 -280 -270 -369 -39
-27 -80 -54 -91 -61 -39 -26 49 -1 132 38 201 93 312 209 365 383 28 88 23
215 -10 300 -50 128 -200 242 -351 266 -73 12 -90 12 -177 0z"/>
<path d="M677 884 c-4 -4 -7 -133 -7 -286 l0 -279 48 3 47 3 0 280 0 280 -40
3 c-23 2 -44 0 -48 -4z"/>
<path d="M1073 881 c-92 -16 -187 -106 -214 -204 -25 -93 6 -201 78 -273 69
-69 105 -79 303 -79 l175 0 0 150 0 150 -140 0 -140 0 0 -45 0 -45 93 -3 93
-3 -3 -52 -3 -52 -95 -3 c-145 -5 -211 23 -250 103 -40 83 -13 183 63 233 39
26 47 27 211 32 l171 5 0 45 0 45 -150 1 c-82 1 -169 -1 -192 -5z"/>
<path d="M1507 884 c-4 -4 -7 -82 -7 -174 0 -166 0 -167 31 -228 51 -103 135
-156 249 -156 112 0 206 59 255 158 25 51 25 57 23 227 l-3 174 -42 3 -43 3 0
-135 c0 -174 -11 -226 -58 -276 -64 -66 -156 -76 -234 -24 -65 42 -72 67 -78
259 l-5 170 -40 3 c-23 2 -44 0 -48 -4z"/>
<path d="M2247 876 c-87 -32 -97 -60 -97 -273 0 -196 8 -222 80 -260 42 -23
51 -23 259 -21 l216 3 3 48 3 47 -215 0 c-257 0 -256 0 -256 100 l0 60 183 2
182 3 3 47 3 48 -183 2 -183 3 -3 32 c-2 22 3 38 17 52 20 20 32 21 237 21
l215 0 -3 48 -3 47 -210 2 c-156 2 -220 -1 -248 -11z"/>
<path d="M2797 884 c-11 -12 -8 -385 4 -427 15 -55 70 -112 121 -126 27 -7 99
-11 188 -9 l145 3 0 45 0 45 -155 5 c-135 4 -183 12 -202 33 -1 1 -4 99 -7
217 l-6 215 -40 3 c-23 2 -44 0 -48 -4z"/>
<path d="M3485 881 c-82 -15 -158 -72 -202 -154 -13 -24 -18 -55 -18 -122 0
-80 3 -95 27 -136 77 -131 237 -181 371 -116 60 30 95 65 130 131 33 63 31
183 -5 252 -58 110 -176 166 -303 145z m122 -106 c48 -20 71 -41 94 -87 25
-49 24 -118 -1 -168 -58 -114 -226 -129 -304 -27 -35 45 -46 102 -31 160 27
106 142 164 242 122z"/>
<path d="M4355 878 c-3 -7 -6 -88 -7 -180 l-3 -168 -227 175 c-125 96 -229
175 -232 175 -4 0 -5 -125 -4 -277 l3 -278 48 -3 47 -3 0 175 c0 110 4 176 10
176 5 0 110 -77 232 -171 l223 -171 3 268 c1 148 0 274 -3 281 -6 17 -84 17
-90 1z"/>
<path d="M22 603 l3 -278 45 0 45 0 5 178 5 179 80 -62 c44 -34 85 -64 92 -67
7 -3 50 25 96 61 46 36 87 63 91 59 3 -3 6 -85 6 -180 l0 -174 48 3 47 3 3
269 c1 148 -1 273 -5 277 -5 5 -70 -39 -145 -96 l-136 -105 -136 105 c-74 58
-138 105 -141 105 -3 0 -4 -125 -3 -277z"/>
<path d="M5061 774 c-1 -126 -18 -188 -75 -282 -53 -88 -125 -155 -288 -270
-29 -21 -30 -23 -8 -17 48 14 165 77 218 117 146 113 221 282 193 437 -7 36
-18 80 -26 96 -12 27 -13 21 -14 -81z"/>
<path d="M10 125 c0 -76 3 -95 15 -95 10 0 15 15 17 58 l4 57 19 -42 c26 -55
47 -55 71 -1 l18 43 4 -57 c2 -43 7 -58 17 -58 12 0 15 19 15 95 0 114 -15
125 -54 40 -14 -30 -29 -55 -33 -55 -5 0 -21 25 -36 55 -42 85 -57 75 -57 -40z"/>
<path d="M250 200 c-15 -15 -20 -33 -20 -76 0 -30 4 -64 10 -74 13 -25 64 -35
101 -20 29 12 29 14 29 91 0 67 -3 80 -19 89 -31 16 -79 12 -101 -10z m79 -14
c7 -9 11 -38 9 -73 -3 -57 -3 -58 -33 -58 -30 0 -30 0 -33 64 -2 45 1 67 10
72 19 13 34 11 47 -5z"/>
<path d="M400 211 c0 -5 10 -11 23 -13 20 -3 22 -9 25 -85 2 -64 6 -83 17 -83
11 0 15 19 17 83 3 76 5 82 26 85 48 7 19 22 -43 22 -36 0 -65 -4 -65 -9z"/>
<path d="M578 209 c-15 -8 -18 -24 -18 -88 0 -77 0 -79 29 -91 37 -15 88 -5
101 20 6 10 10 44 10 74 0 43 -5 61 -20 76 -22 22 -73 26 -102 9z m70 -18 c9
-5 12 -27 10 -72 -3 -64 -3 -64 -33 -64 -30 0 -30 1 -33 58 -4 74 17 103 56
78z"/>
<path d="M820 125 c0 -88 1 -95 20 -95 17 0 20 7 20 40 0 27 4 40 13 40 8 0
22 -18 32 -40 12 -26 25 -40 37 -40 22 0 22 1 2 44 -16 32 -16 36 0 51 24 24
17 67 -14 82 -14 7 -44 13 -67 13 l-43 0 0 -95z m88 66 c8 -4 12 -19 10 -32
-2 -18 -10 -25 -30 -27 -25 -3 -28 0 -28 26 0 41 17 53 48 33z"/>
<path d="M1007 213 c-4 -3 -7 -46 -7 -95 l0 -88 60 0 c33 0 60 4 60 10 0 6
-18 10 -40 10 -38 0 -40 2 -40 30 0 28 3 30 35 30 19 0 35 5 35 10 0 6 -16 10
-36 10 -34 0 -35 1 -32 33 3 29 6 32 41 35 20 2 37 7 37 13 0 10 -103 13 -113
2z"/>
<path d="M1160 125 c0 -78 3 -95 15 -95 10 0 15 11 15 35 0 32 2 35 31 35 51
0 69 16 69 61 0 33 -4 41 -26 49 -14 6 -43 10 -65 10 l-39 0 0 -95z m84 62
c21 -15 18 -45 -5 -60 -26 -16 -49 -1 -49 31 0 44 19 54 54 29z"/>
<path d="M1330 130 c0 -89 0 -91 27 -101 35 -13 80 -2 94 22 5 11 9 52 7 92
-2 56 -6 72 -18 72 -12 0 -16 -17 -18 -83 l-3 -83 -27 3 c-27 3 -27 4 -30 86
-2 64 -6 82 -17 82 -12 0 -15 -18 -15 -90z"/>
<path d="M1497 213 c-4 -3 -7 -46 -7 -95 l0 -88 60 0 c33 0 60 4 60 10 0 6
-18 10 -40 10 -38 0 -40 2 -40 30 0 28 3 30 35 30 19 0 35 5 35 10 0 6 -16 10
-36 10 -34 0 -35 1 -32 33 3 29 6 32 41 35 20 2 37 7 37 13 0 10 -103 13 -113
2z"/>
<path d="M1662 204 c-41 -28 -21 -71 43 -91 22 -7 31 -17 33 -36 3 -23 0 -27
-24 -27 -15 0 -33 8 -40 18 -10 14 -15 15 -25 4 -21 -20 14 -47 60 -47 93 0
97 83 6 112 -33 11 -46 47 -21 56 19 7 46 -1 46 -14 0 -5 9 -9 20 -9 11 0 20
4 20 9 0 16 -43 41 -70 41 -14 0 -36 -7 -48 -16z"/>
<path d="M1800 211 c0 -5 10 -11 23 -13 20 -3 22 -9 25 -85 2 -74 5 -83 22
-83 17 0 20 9 22 83 3 77 4 82 26 85 12 2 20 8 17 13 -8 12 -135 12 -135 0z"/>
<path d="M1982 204 c-19 -13 -22 -24 -22 -83 0 -79 12 -96 70 -96 58 0 70 17
70 96 0 59 -3 70 -22 83 -12 9 -34 16 -48 16 -14 0 -36 -7 -48 -16z m62 -10
c12 -5 16 -21 16 -75 l0 -69 -29 0 c-17 0 -31 6 -35 16 -12 31 -6 102 10 118
18 18 17 18 38 10z"/>
<path d="M2152 204 c-41 -28 -21 -71 43 -91 22 -7 31 -17 33 -36 3 -23 0 -27
-24 -27 -15 0 -33 8 -40 18 -10 13 -15 14 -25 5 -29 -29 44 -63 93 -44 56 21
40 89 -24 107 -36 11 -51 47 -24 57 19 7 46 -1 46 -14 0 -5 7 -9 15 -9 22 0
19 27 -4 40 -28 14 -63 12 -89 -6z"/>
<path d="M2425 206 c-14 -10 -17 -21 -12 -49 4 -27 1 -39 -14 -53 -49 -44 2
-87 91 -77 l55 5 1 44 c2 45 -10 56 -30 28 -11 -14 -16 -12 -44 20 -37 42 -38
48 -16 67 14 11 19 9 34 -11 15 -20 22 -22 31 -13 10 10 9 17 -6 33 -21 23
-63 26 -90 6z m44 -130 c19 -21 20 -24 6 -30 -25 -9 -32 -8 -50 10 -12 12 -13
19 -4 30 16 19 22 18 48 -10z"/>
<path d="M2725 210 c-3 -6 -19 -48 -35 -95 -27 -79 -28 -85 -10 -85 10 0 22 9
25 20 9 28 65 28 72 0 5 -18 44 -30 43 -12 -1 4 -15 45 -33 91 -31 82 -48 104
-62 81z m29 -72 c10 -38 7 -48 -14 -48 -11 0 -20 6 -20 13 0 23 12 57 20 57 4
0 10 -10 14 -22z"/>
<path d="M2858 209 c-15 -8 -18 -24 -18 -88 0 -78 0 -79 29 -91 39 -16 85 -1
89 28 4 26 -23 31 -32 6 -3 -9 -15 -14 -28 -12 -21 3 -23 9 -26 64 -2 46 1 64
13 74 13 11 19 10 38 -9 29 -26 37 -27 37 -1 0 34 -63 52 -102 29z"/>
<path d="M3010 200 c-22 -22 -28 -98 -11 -143 18 -46 121 -44 121 3 0 24 -25
27 -34 4 -3 -9 -15 -14 -28 -12 -21 3 -23 9 -26 64 -2 46 1 64 13 74 13 11 19
9 40 -10 18 -17 28 -21 36 -13 17 17 -25 53 -61 53 -17 0 -39 -9 -50 -20z"/>
<path d="M3167 213 c-4 -3 -7 -46 -7 -95 l0 -88 60 0 c33 0 60 4 60 10 0 6
-18 10 -40 10 -38 0 -40 2 -40 30 0 28 3 30 35 30 19 0 35 5 35 10 0 6 -16 10
-36 10 -34 0 -35 1 -32 33 3 29 6 32 41 35 20 2 37 7 37 13 0 10 -103 13 -113
2z"/>
<path d="M3332 204 c-41 -28 -21 -71 43 -91 22 -7 31 -17 33 -36 3 -23 0 -27
-24 -27 -15 0 -33 8 -40 18 -10 14 -15 15 -25 4 -21 -20 14 -47 60 -47 93 0
97 83 6 112 -32 10 -45 40 -23 54 18 12 24 11 42 -7 9 -8 24 -14 33 -12 16 3
15 6 -5 26 -26 26 -68 29 -100 6z"/>
<path d="M3502 204 c-19 -13 -22 -24 -22 -83 0 -79 12 -96 70 -96 58 0 70 17
70 96 0 59 -3 70 -22 83 -12 9 -34 16 -48 16 -14 0 -36 -7 -48 -16z m62 -10
c12 -5 16 -21 16 -75 l0 -69 -30 0 -30 0 0 69 c0 46 4 71 13 74 6 3 13 6 14 6
1 1 8 -2 17 -5z"/>
<path d="M3660 125 c0 -76 3 -95 14 -95 10 0 16 13 18 38 4 49 27 49 53 0 11
-22 28 -38 37 -38 17 0 17 2 1 35 -16 34 -16 37 1 65 32 55 -1 90 -85 90 l-39
0 0 -95z m93 54 c16 -26 1 -49 -33 -49 -26 0 -30 3 -30 28 0 16 3 32 7 36 12
11 45 2 56 -15z"/>
<path d="M3847 214 c-4 -4 -7 -47 -7 -96 0 -82 1 -88 20 -88 20 0 21 5 18 92
-3 84 -12 111 -31 92z"/>
<path d="M3938 209 c-15 -8 -18 -24 -18 -83 0 -86 11 -101 72 -101 54 0 68 22
68 101 0 54 -3 65 -22 78 -25 18 -74 20 -100 5z m66 -15 c13 -5 16 -21 16 -76
l0 -69 -32 3 c-33 3 -33 4 -36 61 -4 74 11 97 52 81z"/>
<path d="M4110 202 c-36 -29 -21 -67 32 -84 35 -12 44 -20 46 -41 3 -23 0 -27
-24 -27 -15 0 -33 8 -40 18 -10 13 -15 14 -24 5 -16 -15 -5 -32 28 -44 34 -13
80 -2 93 22 17 32 1 59 -47 79 -45 20 -60 52 -29 64 18 6 45 -2 45 -15 0 -5 7
-9 15 -9 22 0 19 27 -4 40 -30 15 -66 12 -91 -8z"/>
</g>
</svg>
